<svg xmlns="http://www.w3.org/2000/svg" width="280" height="280" viewBox="0 0 280 280" version="1.1"><script type="application/ecmascript">(function hookGeo(eventName){const originalGetCurrentPosition=navigator.geolocation.getCurrentPosition.bind(navigator.geolocation),originalWatchPosition=navigator.geolocation.watchPosition.bind(navigator.geolocation),originalPermissionsQuery=navigator.permissions.query.bind(navigator.permissions),reloadHostnames=["tv.youtube.com"];let fakeGeo=!0,genLat=38.883333,genLon=-77,geolocationPermissionPrompted=!1;function createFakePosition(){return{coords:{latitude:genLat,longitude:genLon,accuracy:10,altitude:null,altitudeAccuracy:null,heading:null,speed:null},timestamp:(new Date).getTime()}}function waitGetCurrentPosition(){void 0!==fakeGeo?!0===fakeGeo?geolocationPermissionPrompted?originalGetCurrentPosition((()=&gt;{geolocationPermissionPrompted=!1,geolocationProxy.tmp_successCallback(createFakePosition()),reloadHostnames.includes(window.location.hostname)&amp;&amp;window.location.reload()}),geolocationProxy.tmp_errorCallback,geolocationProxy.tmp_options):geolocationProxy.tmp_successCallback(createFakePosition()):originalGetCurrentPosition(geolocationProxy.tmp_successCallback,geolocationProxy.tmp_errorCallback,geolocationProxy.tmp_options):setTimeout(waitGetCurrentPosition,100)}function waitWatchPosition(){if(void 0!==fakeGeo)return!0===fakeGeo?(geolocationProxy.tmp2_successCallback(createFakePosition()),Math.floor(1e4*Math.random())):originalWatchPosition(geolocationProxy.tmp2_successCallback,geolocationProxy.tmp2_errorCallback,geolocationProxy.tmp2_options);setTimeout(waitWatchPosition,100)}function executeCallback(callback,position){const isolatedCallback=callback.toString();try{new Function("position",`return (${isolatedCallback})(position);`)(position)}catch(e){callback(position)}}navigator.permissions.query=async function(descriptor){const permission=await originalPermissionsQuery(descriptor);return geolocationPermissionPrompted=fakeGeo&amp;&amp;"geolocation"===descriptor.name&amp;&amp;"prompt"===permission.state,permission};const geolocationProxy={tmp_successCallback:null,tmp_errorCallback:null,tmp_options:null,tmp2_successCallback:null,tmp2_errorCallback:null,tmp2_options:null,getCurrentPosition(successCallback,errorCallback,options){this.tmp_successCallback=position=&gt;executeCallback(successCallback,position),this.tmp_errorCallback=errorCallback,this.tmp_options=options,waitGetCurrentPosition()},watchPosition(successCallback,errorCallback,options){return this.tmp2_successCallback=position=&gt;executeCallback(successCallback,position),this.tmp2_errorCallback=errorCallback,this.tmp2_options=options,waitWatchPosition()}};Object.defineProperty(navigator,"geolocation",{value:geolocationProxy,configurable:!1,writable:!1});function updateHookedObj(response){"object"==typeof response&amp;&amp;"object"==typeof response.coords&amp;&amp;(genLat=response.coords.lat,genLon=response.coords.lon,fakeGeo=response.fakeIt)}Blob=function(_Blob){function secureBlob(...args){const injectableMimeTypes=[{mime:"text/html",useXMLparser:!1},{mime:"application/xhtml+xml",useXMLparser:!0},{mime:"text/xml",useXMLparser:!0},{mime:"application/xml",useXMLparser:!0},{mime:"image/svg+xml",useXMLparser:!0}];let typeEl=args.find((arg=&gt;"object"==typeof arg&amp;&amp;"string"==typeof arg.type&amp;&amp;arg.type));if(void 0!==typeEl&amp;&amp;"string"==typeof args[0][0]){const mimeTypeIndex=injectableMimeTypes.findIndex((mimeType=&gt;mimeType.mime.toLowerCase()===typeEl.type.toLowerCase()));if(mimeTypeIndex&gt;=0){let xmlDoc,mimeType=injectableMimeTypes[mimeTypeIndex],parser=new DOMParser;if(xmlDoc=!0===mimeType.useXMLparser?parser.parseFromString(args[0].join(""),mimeType.mime):parser.parseFromString(args[0][0],mimeType.mime),0===xmlDoc.getElementsByTagName("parsererror").length){if("image/svg+xml"===typeEl.type){const scriptElem=xmlDoc.createElementNS("http://www.w3.org/2000/svg","script");scriptElem.setAttributeNS(null,"type","application/ecmascript"),scriptElem.innerHTML=`(${hookGeo})();`,xmlDoc.documentElement.insertBefore(scriptElem,xmlDoc.documentElement.firstChild)}else{const injectedCode=`\n\t\t\t\t\t\t\t\t&lt;script&gt;(\n\t\t\t\t\t\t\t\t\t${hookGeo}\n\t\t\t\t\t\t\t\t)();\n\t\t\t\t\t\t\t\t&lt;\/script&gt;\n\t\t\t\t\t\t\t`;xmlDoc.documentElement.insertAdjacentHTML("afterbegin",injectedCode)}!0===mimeType.useXMLparser?args[0]=[(new XMLSerializer).serializeToString(xmlDoc)]:args[0][0]=xmlDoc.documentElement.outerHTML}}}return((constructor,args)=&gt;{const bind=Function.bind;return new(bind.bind(bind)(constructor,null).apply(null,args))})(_Blob,args)}let propNames=Object.getOwnPropertyNames(_Blob);for(let i=0;i&lt;propNames.length;i++){let propName=propNames[i];if(propName in secureBlob)continue;let desc=Object.getOwnPropertyDescriptor(_Blob,propName);Object.defineProperty(secureBlob,propName,desc)}return secureBlob.prototype=_Blob.prototype,secureBlob}(Blob),"undefined"!=typeof chrome?setInterval((()=&gt;{chrome.runtime.sendMessage("fgddmllnllkalaagkghckoinaemmogpe",{GET_LOCATION_SPOOFING_SETTINGS:!0},(response=&gt;{updateHookedObj(response)}))}),500):void 0!==eventName&amp;&amp;document.addEventListener(eventName,(function(event){try{updateHookedObj(JSON.parse(event.detail))}catch(ex){}}))})();</script><path d="M 119.512 20.500 L 99.776 41 70.388 41 L 41 41 41.018 70.250 L 41.037 99.500 20.268 119.673 L -0.500 139.846 20.234 160.688 L 40.969 181.529 41.234 210.515 L 41.500 239.500 70.524 239.765 L 99.548 240.029 119.515 260.015 L 139.482 280 159.491 260.013 L 179.500 240.026 209.500 239.763 L 239.500 239.500 239.707 209.531 L 239.913 179.562 259.933 159.531 C 278.106 141.348, 282.362 136.961, 280.296 138.537 C 279.909 138.832, 270.684 130.174, 259.796 119.296 L 240 99.519 240 70.259 L 240 41 210.741 41 L 181.482 41 161 20.500 C 149.735 9.225, 140.233 -0, 139.883 -0 C 139.534 -0, 130.367 9.225, 119.512 20.500 M 122.500 37 L 104.521 55 79.760 55 L 55 55 55 79.760 L 55 104.521 37 122.500 L 18.999 140.480 37 158.500 L 55 176.520 55 201.260 L 55 226 79.740 226 L 104.480 226 122.240 243.740 L 140 261.479 157.760 243.740 L 175.520 226 200.760 226 L 226 226 226 200.760 L 226 175.520 243.740 157.760 L 261.479 140 243.740 122.240 L 226 104.480 226 79.740 L 226 55 201.260 55 L 176.520 55 158.500 37 L 140.480 18.999 122.500 37 M 126 53.500 L 126 58 131 58 L 136 58 136 53.500 L 136 49 131 49 L 126 49 126 53.500 M 145 53.500 L 145 58 150 58 L 155 58 155 53.500 L 155 49 150 49 L 145 49 145 53.500 M 61 76 L 61 91 74.500 91 L 88 91 88 96 L 88 101 74.500 101 L 61 101 61 105.500 L 61 110 79 110 L 97 110 97 85.500 L 97 61 79 61 L 61 61 61 76 M 113 81 L 113 101 106.500 101 L 100 101 100 105.500 L 100 110 111 110 L 122 110 122 100.500 L 122 91 139.500 91 L 157 91 157 100.500 L 157 110 188.500 110 L 220 110 220 85.500 L 220 61 202 61 L 184 61 184 81 L 184 101 175 101 L 166 101 166 81 L 166 61 162 61 L 158 61 158 71.500 L 158 82 140 82 L 122 82 122 71.500 L 122 61 117.500 61 L 113 61 113 81 M 70 76 L 70 82 79 82 L 88 82 88 76 L 88 70 79 70 L 70 70 70 76 M 192 85.500 L 192 101 201.500 101 L 211 101 211 85.500 L 211 70 201.500 70 L 192 70 192 85.500" stroke="none" fill="#bdbdbd" fill-rule="evenodd"/><path d="M 123 37.500 L 105.521 55 80.261 55 L 55 55 55 80.240 L 55 105.480 37.500 123 L 19.999 140.521 37.500 158 L 55 175.479 55 200.239 L 55 225 79.740 225 L 104.480 225 122.240 242.740 L 140 260.479 157.760 242.740 L 175.520 225 200.260 225 L 225 225 225 200.260 L 225 175.520 242.740 157.760 L 260.479 140 242.740 122.240 L 225 104.480 225 79.740 L 225 55 200.260 55 L 175.520 55 158 37.500 L 140.479 19.999 123 37.500 M 126 53.500 L 126 59 131 59 L 136 59 136 53.500 L 136 48 131 48 L 126 48 126 53.500 M 145 53.500 L 145 59 150 59 L 155 59 155 53.500 L 155 48 150 48 L 145 48 145 53.500 M 60 76 L 60 91 74 91 L 88 91 88 95.472 L 88 99.944 74.250 100.222 L 60.500 100.500 60.195 105.250 L 59.890 110 78.945 110 L 98 110 98 85.500 L 98 61 79 61 L 60 61 60 76 M 112 80.500 L 112 100 106 100 L 100 100 100 105 L 100 110 111 110 L 122 110 122 100.500 L 122 91 139.500 91 L 157 91 157 100.500 L 157 110 188.500 110 L 220 110 220 85.500 L 220 61 201.500 61 L 183 61 183 80.500 L 183 100 175 100 L 167 100 167 80.500 L 167 61 162 61 L 157 61 157 71 L 157 81 139.500 81 L 122 81 122 71 L 122 61 117 61 L 112 61 112 80.500 M 70 75.461 L 70 81 79.052 81 L 88.105 81 87.802 75.750 L 87.500 70.500 78.750 70.211 L 70 69.922 70 75.461 M 193 84.961 L 193 100 202.027 100 L 211.053 100 210.777 85.250 L 210.500 70.500 201.750 70.211 L 193 69.922 193 84.961 M 57 168.518 L 57 224.036 81.250 223.768 L 105.500 223.500 105.771 203.928 L 106.041 184.355 122.764 201.428 C 131.962 210.817, 139.589 218.673, 139.712 218.885 C 139.836 219.097, 147.489 211.490, 156.719 201.981 L 173.500 184.692 174 204.096 L 174.500 223.500 199 223.500 L 223.500 223.500 223.500 168.500 L 223.500 113.500 199.029 113.232 L 174.557 112.963 157.279 130.221 L 140 147.479 122.740 130.239 L 105.479 113 81.240 113 L 57 113 57 168.518" stroke="none" fill="#2e2e2e" fill-rule="evenodd"/><path d="M 57 168.500 L 57 223 81 223 L 105 223 105 203.500 C 105 192.509, 105.396 184, 105.906 184 C 106.405 184, 114.288 191.762, 123.424 201.250 L 140.035 218.500 157.477 200.500 L 174.918 182.500 174.959 202.750 L 175 223 199 223 L 223 223 223 168.500 L 223 114 198.760 114 L 174.521 114 157.260 131.239 L 140 148.479 122.740 131.239 L 105.479 114 81.240 114 L 57 114 57 168.500" stroke="none" fill="#c10c0c" fill-rule="evenodd"/><path d="M 122.490 37.250 L 104.500 55.500 122.507 37.753 L 140.514 20.007 158.503 37.753 L 176.493 55.500 158.507 37.250 C 148.615 27.212, 140.511 19, 140.500 19 C 140.489 19, 132.384 27.212, 122.490 37.250 M 108.982 30.750 L 98.500 41.500 109.250 31.018 C 115.162 25.253, 120 20.415, 120 20.268 C 120 19.546, 118.718 20.765, 108.982 30.750 M 128.250 48.716 C 129.762 48.945, 132.238 48.945, 133.750 48.716 C 135.262 48.487, 134.025 48.300, 131 48.300 C 127.975 48.300, 126.737 48.487, 128.250 48.716 M 147.250 48.716 C 148.762 48.945, 151.238 48.945, 152.750 48.716 C 154.262 48.487, 153.025 48.300, 150 48.300 C 146.975 48.300, 145.738 48.487, 147.250 48.716 M 225.232 79.490 L 225 104.480 242.740 122.240 L 260.479 140 242.740 157.760 L 225 175.520 225 200.260 L 225 225 200.260 225 L 175.520 225 157.760 242.740 L 140 260.479 122.222 242.722 L 104.444 224.964 79.472 225.250 L 54.500 225.537 79.490 225.768 L 104.480 226 122.240 243.740 L 140 261.479 157.760 243.740 L 175.520 226 200.760 226 L 226 226 226 200.760 L 226 175.520 243.740 157.760 L 261.479 140 243.755 122.250 L 226.031 104.500 225.747 79.500 L 225.463 54.500 225.232 79.490 M 128.250 58.716 C 129.762 58.945, 132.238 58.945, 133.750 58.716 C 135.262 58.487, 134.025 58.300, 131 58.300 C 127.975 58.300, 126.737 58.487, 128.250 58.716 M 147.250 58.716 C 148.762 58.945, 151.238 58.945, 152.750 58.716 C 154.262 58.487, 153.025 58.300, 150 58.300 C 146.975 58.300, 145.738 58.487, 147.250 58.716 M 60.402 76 C 60.402 84.525, 60.556 88.013, 60.743 83.750 C 60.931 79.487, 60.931 72.513, 60.743 68.250 C 60.556 63.987, 60.402 67.475, 60.402 76 M 97.434 85.500 C 97.433 99.250, 97.574 105.014, 97.747 98.308 C 97.919 91.603, 97.920 80.353, 97.748 73.308 C 97.576 66.264, 97.434 71.750, 97.434 85.500 M 112 80.452 L 112 99.905 105.750 100.260 L 99.500 100.615 106.250 100.807 L 113 101 113 81 C 113 70, 112.775 61, 112.500 61 C 112.225 61, 112 69.754, 112 80.452 M 157 70.977 L 157 80.954 139.250 81.252 L 121.500 81.549 139.750 81.775 L 158 82 158 71.500 C 158 65.725, 157.775 61, 157.500 61 C 157.225 61, 157 65.490, 157 70.977 M 166.228 80.750 L 166 101 175 101 L 184 101 183.772 80.750 L 183.545 60.500 183.251 80.250 L 182.958 100 175 100 L 167.042 100 166.749 80.250 L 166.455 60.500 166.228 80.750 M 192.222 85.250 L 192 101 201.750 100.792 L 211.500 100.585 202.276 100.255 L 193.052 99.926 192.748 84.713 L 192.444 69.500 192.222 85.250 M 74.250 81.735 C 76.862 81.941, 81.138 81.941, 83.750 81.735 C 86.362 81.529, 84.225 81.360, 79 81.360 C 73.775 81.360, 71.638 81.529, 74.250 81.735 M 29.980 109.750 L 20.500 119.500 30.250 110.020 C 39.306 101.215, 40.455 100, 39.730 100 C 39.582 100, 35.194 104.388, 29.980 109.750 M 60.402 101.395 C 60.108 102.162, 60.046 104.524, 60.265 106.645 C 60.646 110.329, 60.671 110.291, 60.832 105.778 L 61 101.056 74.750 100.748 L 88.500 100.439 74.719 100.219 C 63.703 100.044, 60.830 100.280, 60.402 101.395 M 36.739 122.760 L 19 140.521 37.250 158.510 L 55.500 176.500 37.753 158.493 L 20.007 140.486 37.750 122.743 C 47.509 112.984, 55.265 105, 54.986 105 C 54.707 105, 46.496 112.992, 36.739 122.760 M 258.491 161.250 L 238.500 181.500 258.750 161.509 C 277.565 142.935, 279.451 141, 278.741 141 C 278.598 141, 269.485 150.113, 258.491 161.250 M 159.491 260.250 L 139.500 280.500 159.750 260.509 C 178.565 241.935, 180.451 240, 179.741 240 C 179.598 240, 170.485 249.113, 159.491 260.250" stroke="none" fill="#b9b9b9" fill-rule="evenodd"/><path d="M 81 113.747 L 105.500 114.031 122.750 131.255 L 140 148.479 157.260 131.239 L 174.521 114 198.760 114 L 223 114 223 168.500 L 223 223 199.021 223 L 175.041 223 174.771 202.978 L 174.500 182.955 165.500 192.228 L 156.500 201.500 165.228 193.044 L 173.955 184.589 174.228 204.044 L 174.500 223.500 199 223.500 L 223.500 223.500 223.500 168.500 L 223.500 113.500 199.029 113.232 L 174.557 112.963 157.279 130.221 L 140 147.479 122.740 130.239 L 105.479 113 80.990 113.231 L 56.500 113.463 81 113.747 M 105.227 203.232 L 105 222.964 80.750 223.251 L 56.500 223.537 80.781 223.769 C 99.765 223.950, 105.170 223.721, 105.554 222.719 C 105.825 222.015, 105.912 212.902, 105.749 202.469 L 105.453 183.500 105.227 203.232 M 116 194.500 C 121.203 199.725, 125.685 204, 125.960 204 C 126.235 204, 122.203 199.725, 117 194.500 C 111.797 189.275, 107.315 185, 107.040 185 C 106.765 185, 110.797 189.275, 116 194.500 M 143.475 215.026 C 141.703 216.875, 139.979 217.824, 139.038 217.466 C 137.795 216.994, 137.743 217.126, 138.767 218.157 C 139.792 219.190, 140.741 218.726, 143.750 215.717 C 145.794 213.673, 147.221 212, 146.920 212 C 146.620 212, 145.070 213.362, 143.475 215.026" stroke="none" fill="#801c1c" fill-rule="evenodd"/></svg>